<?xml version="1.0" encoding="UTF-8"?>
<svg id="Camada_1" xmlns="http://www.w3.org/2000/svg" version="1.1" viewBox="0 0 200 200">
  <!-- Generator: Adobe Illustrator 29.8.1, SVG Export Plug-In . SVG Version: 2.1.1 Build 2)  -->
  <defs>
    <style>
      .st0 {
        fill: #e61f5f;
      }
    </style>
  </defs>
  <path class="st0" d="M19.47,138.28v-25.03c0-5.96-1.85-7.82-8.34-7.82v-10.86c6.49,0,8.34-1.85,8.34-7.81v-25.03c0-10.07,6.62-14.7,14.7-14.7h7.55v10.86h-2.12c-5.3,0-6.89,1.85-6.89,7.95v22.39c0,6.23-2.65,10.07-8.21,11.66v.26c5.56,1.59,8.21,5.43,8.21,11.66v22.39c0,6.09,1.59,7.95,6.89,7.95h2.12v10.86h-7.55c-8.08,0-14.7-4.64-14.7-14.7Z"/>
  <path class="st0" d="M53.97,53.64h14.57v92.72h-14.57V53.64Z"/>
  <path class="st0" d="M79.53,124.37v-5.3h13.78v6.36c0,6.62,2.91,9.01,7.55,9.01s7.68-2.38,7.68-9.27c0-7.68-3.18-12.45-12.72-20.8-12.19-10.73-16.29-18.41-16.29-29.01,0-14.57,7.55-23.05,21.72-23.05s21.19,8.48,21.19,23.31v3.84h-13.77v-4.77c0-6.62-2.65-9.14-7.29-9.14s-7.42,2.52-7.42,8.87c0,6.76,3.31,11.52,12.85,19.87,12.19,10.73,16.16,18.28,16.16,29.8,0,15.1-7.68,23.58-21.99,23.58s-21.46-8.48-21.46-23.31Z"/>
  <path class="st0" d="M133.84,53.64h14.57v92.72h-14.57V53.64Z"/>
  <path class="st0" d="M158.28,142.12h2.12c5.3,0,6.89-1.86,6.89-7.95v-22.39c0-6.23,2.65-10.07,8.21-11.66v-.26c-5.56-1.59-8.21-5.43-8.21-11.66v-22.39c0-6.09-1.59-7.95-6.89-7.95h-2.12v-10.86h7.55c8.08,0,14.7,4.64,14.7,14.7v25.03c0,5.96,1.85,7.81,8.34,7.81v10.86c-6.49,0-8.34,1.85-8.34,7.82v25.03c0,10.07-6.62,14.7-14.7,14.7h-7.55v-10.86Z"/>
</svg>